# Blender v2.77 (sub 0) OBJ File: 'robot.blend'
# www.blender.org
o Cube_Cube.002
v -1.000000 -1.000000 3.683499
v -1.000000 1.000000 3.683499
v -1.000000 -1.000000 -3.683499
v -1.000000 1.000000 -3.683499
v 1.000000 -1.000000 3.683499
v 1.000000 1.000000 3.683499
v 1.000000 -1.000000 -3.683499
v 1.000000 1.000000 -3.683499
vt 1.0000 0.0000
vt 0.0000 -1.0000
vt 0.0000 0.0000
vt 1.0000 0.0000
vt 0.0000 -1.0000
vt 0.0000 0.0000
vt -1.0000 0.0000
vt 0.0000 -1.0000
vt 0.0000 0.0000
vt -1.0000 0.0000
vt 0.0000 -1.0000
vt 0.0000 0.0000
vt 0.0000 1.0000
vt 1.0000 0.0000
vt 0.0000 0.0000
vt 0.0000 1.0000
vt 1.0000 -1.0000
vt 1.0000 -1.0000
vt -1.0000 -1.0000
vt -1.0000 -1.0000
vt 1.0000 1.0000
vt -1.0000 1.0000
vn -1.0000 0.0000 0.0000
vn 0.0000 0.0000 -1.0000
vn 1.0000 0.0000 0.0000
vn 0.0000 0.0000 1.0000
vn 0.0000 -1.0000 0.0000
vn 0.0000 1.0000 0.0000
s off
f 4/1/1 1/2/1 2/3/1
f 8/4/2 3/5/2 4/6/2
f 6/7/3 7/8/3 8/9/3
f 2/10/4 5/11/4 6/12/4
f 3/13/5 5/14/5 1/15/5
f 8/16/6 2/10/6 6/12/6
f 4/1/1 3/17/1 1/2/1
f 8/4/2 7/18/2 3/5/2
f 6/7/3 5/19/3 7/8/3
f 2/10/4 1/20/4 5/11/4
f 3/13/5 7/21/5 5/14/5
f 8/16/6 4/22/6 2/10/6
