# Blender v2.77 (sub 0) OBJ File: 'robot.blend'
# www.blender.org
o Cube.008_Cube.022
v -0.639942 -0.184457 0.142209
v -0.640214 0.206061 0.142209
v -0.639942 -0.184457 -0.148485
v -0.640214 0.206061 -0.148485
v 0.657262 -0.183554 0.142209
v 0.656990 0.206964 0.142209
v 0.657262 -0.183554 -0.148485
v 0.656990 0.206964 -0.148485
vn -1.0000 -0.0007 0.0000
vn 0.0000 0.0000 -1.0000
vn 1.0000 0.0007 0.0000
vn 0.0000 0.0000 1.0000
vn 0.0007 -1.0000 0.0000
vn -0.0007 1.0000 0.0000
s off
f 4//1 1//1 2//1
f 8//2 3//2 4//2
f 6//3 7//3 8//3
f 2//4 5//4 6//4
f 3//5 5//5 1//5
f 8//6 2//6 6//6
f 4//1 3//1 1//1
f 8//2 7//2 3//2
f 6//3 5//3 7//3
f 2//4 1//4 5//4
f 3//5 7//5 5//5
f 8//6 4//6 2//6
