# Blender v2.77 (sub 0) OBJ File: 'robot.blend'
# www.blender.org
o Cube.003_Cube.005
v -0.582584 -0.274171 1.121686
v -0.582584 0.298583 1.117040
v -0.582584 -0.292255 -1.107382
v -0.582584 0.280500 -1.112029
v 0.582584 -0.274171 1.121686
v 0.582584 0.298583 1.117040
v 0.582584 -0.292255 -1.107382
v 0.582584 0.280500 -1.112029
vt 1.4221 0.5114
vt 0.4221 -0.4886
vt 0.4221 0.5114
vt 1.0000 0.5114
vt 0.0000 -0.4886
vt 0.0000 0.5114
vt -0.5779 0.5114
vt 0.4221 -0.4886
vt 0.4221 0.5114
vt -1.0000 0.5114
vt 0.0000 -0.4886
vt 0.0000 0.5114
vt 0.0000 1.4221
vt 1.0000 0.4221
vt 0.0000 0.4221
vt 0.0000 1.4221
vt -1.0000 0.4221
vt 0.0000 0.4221
vt 1.4221 -0.4886
vt 1.0000 -0.4886
vt -0.5779 -0.4886
vt -1.0000 -0.4886
vt 1.0000 1.4221
vt -1.0000 1.4221
vn -1.0000 0.0000 0.0000
vn 0.0000 -0.0081 -1.0000
vn 1.0000 -0.0000 0.0000
vn 0.0000 0.0081 1.0000
vn 0.0000 -1.0000 0.0081
vn 0.0000 1.0000 -0.0081
s off
f 4/1/1 1/2/1 2/3/1
f 8/4/2 3/5/2 4/6/2
f 6/7/3 7/8/3 8/9/3
f 2/10/4 5/11/4 6/12/4
f 3/13/5 5/14/5 1/15/5
f 8/16/6 2/17/6 6/18/6
f 4/1/1 3/19/1 1/2/1
f 8/4/2 7/20/2 3/5/2
f 6/7/3 5/21/3 7/8/3
f 2/10/4 1/22/4 5/11/4
f 3/13/5 7/23/5 5/14/5
f 8/16/6 4/24/6 2/17/6
