# Blender v2.77 (sub 0) OBJ File: 'robot.blend'
# www.blender.org
o Cube.007_Cube.009
v -0.582584 -1.049356 -0.617014
v -0.582584 -1.048514 0.594905
v -0.582584 1.074474 -0.618490
v -0.582584 1.075317 0.593429
v 0.582584 -1.049356 -0.617014
v 0.582584 -1.048514 0.594905
v 0.582584 1.074474 -0.618490
v 0.582584 1.075317 0.593429
vt 0.9888 0.8593
vt 1.9888 -0.1407
vt 0.9888 -0.1407
vt 1.0000 0.8593
vt 0.0000 -0.1407
vt 0.0000 0.8593
vt -0.0112 0.8593
vt 0.9888 -0.1407
vt 0.9888 0.8593
vt -1.0000 0.8593
vt 0.0000 -0.1407
vt 0.0000 0.8593
vt 0.0000 1.9888
vt 1.0000 0.9888
vt 0.0000 0.9888
vt 0.0000 1.9888
vt -1.0000 0.9888
vt 0.0000 0.9888
vt 1.9888 0.8593
vt 1.0000 -0.1407
vt -0.0112 -0.1407
vt -1.0000 -0.1407
vt 1.0000 1.9888
vt -1.0000 1.9888
vn -1.0000 -0.0000 0.0000
vn 0.0000 1.0000 -0.0007
vn 1.0000 0.0000 0.0000
vn 0.0000 -1.0000 0.0007
vn 0.0000 -0.0007 -1.0000
vn 0.0000 0.0007 1.0000
s off
f 2/1/1 3/2/1 1/3/1
f 8/4/2 3/5/2 4/6/2
f 6/7/3 7/8/3 8/9/3
f 2/10/4 5/11/4 6/12/4
f 3/13/5 5/14/5 1/15/5
f 8/16/6 2/17/6 6/18/6
f 2/1/1 4/19/1 3/2/1
f 8/4/2 7/20/2 3/5/2
f 6/7/3 5/21/3 7/8/3
f 2/10/4 1/22/4 5/11/4
f 3/13/5 7/23/5 5/14/5
f 8/16/6 4/24/6 2/17/6
